<?xml version="1.0" encoding="UTF-8"?><svg id="Layer_2" xmlns="http://www.w3.org/2000/svg" viewBox="0 0 325.52 196.73"><g id="Layer_1-2"><path d="M116.41,2.72c.36.38,1.05.4,1.58.39l.04,1.48-2.05.99.04,2c.59,1.41,4.05.54,3.01,4.96-.77,3.27-4.95,2.49-4.02,6.51,3.17-.55,5.39,3.18,7.73,3.77,2.61.67,5.1-.02,8.19.81,5.36,1.45,4.43,4.75,6.65,6.34,2.19,1.57,7.46,1.51,10.19,2.78,1.55.72,1.74,3.46,4.77,3.24,6.18-.45,1.56-8.56,2.54-9.87.26-.35,3.1-.59,4.17-1.14.86-.44.52-1.97,2.24-2.03,4.73-.17,5.17,2.03,6.87,2.77,8.27,3.61,8.61,2.89,17.12,4.38,3.4.6,5.95,4.28,10.85,2.76,1.73-.54,1.91-2.48,5.22-2.89,4.16-.52,3.32,1.84,4.18,2.05,12.49,3.04,10.9-4.69,12.59-12.18.38-1.67,2.31-3.29,2.52-5.49s-1.22-4.29-.8-6.56c.12-.65,1.36-.73,1.57-1.11.57-.99.74-2.56,1.37-3.1.58-.5,10.58-.23,12.51-.54C238.9,2.48,242.88.05,247.54,0c.67,0,7.83,1.19,8.21,1.37,1.32.62,2.49,4.45,3.32,5.15.89.74,3.74.87,3.87,2.04l-2.78,10.4c3.57.09,5.09,3.86,7.5,5.98.84.74,2.95.81,3.23,1.27.79,1.28-.13,9.85,4.14,9.86l-2.06,1.57c-.26,1.14,2.23,7.79,3.02,8.95,1.04,1.53,3.86,2.2,4.08,3.14.41,1.78-.66,4.66.19,6.1.17.29,4.91,4.21,5.24,4.25.78.1,2.64.37,2.57-.71l.48-3.34c4.19,2.46,1.61,7.03,2.65,10.33.75,2.38,8.99,1.37,10.78.07,2.24-1.63,2.64-5.6,3.37-6.19.6-.49,2.23.02,2.56-.33.75-.82-1.13-4.47,3.14-4.88.3,2.65-.44,5.77.04,8.31.05.27,2.83,1.88,2.07,4.57,8.8-.36,16.02,5.56,10.36,14.03-2.7,4.03-7.58,4.44-4.45,11.01-3.83-.58-4.26,3.64-6.02,4.51-3.31,1.66-3.76-1.48-4.92,5.06-2.66.71-5.12.2-7.85,1.11-3.5,1.17-2.99,6-3.26,6.27-.32.32-2.27-.24-3.19.01-1.25.33-1.05,2.44-2.4,2.87-7.82,2.49-15.18,6.17-23.68,8.16-.56.13-7.01,7.37-9.49,1.24-2.74-6.77-2.43-17.95-5.3-22.39-.95-1.48-2.71-2.1-3.96-4.3-3.21-5.65-2.51-5.63-7.41-10.6-1.02-1.03-3.37-1.8-3.57-2.63v-10.29s-1.97,1.01-1.97,1.01c1.52-5.72-4.16-5.29-4.87-6.13-.46-.54.12-3.83-.67-5.83-.32-.8-9.08-13.16-10.02-14.06-1.45-1.4-3.21,2.34-2.47-4.93l-2.48,5.98-6.5-6.98c-1.43,4.75,2.49,4,4.07,6.42,3.96,6.06,6.12,18.23,10.12,24.83,1.12,1.85,3.36,2.43,4.82,4.17,4.82,5.74,2.11,16.33,3.13,17.4.25.26,4.73.35,4.9,4.55.02.37-3.35,2.26-4.74,5.34-1.99,4.38-2.62,19.51-3.49,20.04-3.21,1.94-6,5.93-7.76,9.86-.59,1.31.67,3.98-1.56,5.22-1.74-1.19-1.16-3.31-2.08-4.94-.44-.78-2.17-.75-2.44-1.73-.47-1.73,1.4-5.68-1.46-5.28-2.97,3.5-2.72,12.93-8.92,12.03-.58-.08-.39-2.91-3.11-1.56-2.02,1-2.84,3.23-5.05,3.53-2.9.4-7.89-2.11-11.46-1.02v-4.01c-7.62-2.01-4.02,10.86-11.05,7.53-1.1-.64.13-3.62-.32-5.55-1.25-5.4-5.69-8.51-4.63-13.96l-2.01-.5c2.75-5.49.78-12.88,8.09-15.07l-.58-17.36c-.32-.7-5.96-5.33-7-6-2.12-1.37-9.74-2.28-7.48-5.98-6.51,1.26-15.97-11.58-22.17-7.71-1.5.93-1.89,3.02-3.31,2.77-2.07-.48-2.95-2.33-4.96-3.12-7.89-3.11-5.81-.73-10.65,2.5-3.31,2.21-8.56,4.37-11.42,6.56-3.03,2.32-6.39,8.19-9.12,9.87-1.08.67-10.99,2.51-11.39,2.1-.2-.21.36-1.99-.19-2.74-.36-.5-6.54-3.45-7.37-4.18-3.96-3.45-9.24-10.71-14.18-14.09-2.52-1.72-11.69-3.86-9.27-6.93-2.32,1-3.23-1.87-3.45-1.88-1.67-.03-5.1,1.73-7.56.85l4.01,46.93c-5.48.44-11.06-.39-16.5-.43-3.69-.03-7.58,2.24-10.5-.57v4s-4.4.05-4.4.05c-2.58-7.17-6.83-10.41-14.63-8.04.43-5.92.88-12.61.04-18.52-1.22-8.65-4.38-3.88,1.05-14.62,3.09-6.1,7-12.64,11.64-17.04.77-.73.4-3.38,2.31-5.2,2.23-2.14,7.68-3.52,9.93-5.08.29-.2,4.72-4.73,4.9-5.03,2.18-3.49-.15-5.61.52-9.42.38-2.15,3.35-7.24,4.96-8.61,2.46-2.1,5.27-1.91,7.2-3.3,2.78-2.01,3.98-8.63,6.96-11.02l.49,4c4.06-.99,8.8,1.19,12.38.95,4.13-.27,8.26-4.92,12.6-6.48,11.02-3.94,21.17-1.2,31.58-2.41,1.87-.22,1.95-3.25,5.01-3.08,1.75-.01,1.93,1.69,2.84,2.63Z"/><path d="M292.15,127.85c2.08,10.44-2.86,15.46-6.47,23.97-1.31,3.1-1.9,6.73-3.22,9.73-2.56,5.78-13.06,14.68-18.68,19.85-1.74,1.6-7.37,6.48-8.64,7.99-1.45,1.73-1.18,6.27-3.92,7.34-2.47-6.6-4.17-24.28,1.5-28.94,1.48-1.21,3.22-.79,4.42-1.57,1.01-.65,1.24-2.42,2.05-2.94,2.22-1.42,6.36.56,8.6-1.4,1.07-.94,1.03-2.84,1.8-3.71,3.09-3.46,6.44-6.89,9.58-10.36-6.18.56-22.37-6.59-23.85-12.7-.33-1.36,1.12-3.04.87-3.27l-3.99,1c-2.48-3.12,2.58-9.53,5.47-8.99,2.42.45.21,4.95,1.6,7.34,4.04,6.93,6.46,2.66,9.66,1.89,5.2-1.25,11.99-1.26,17.28-2.69,2.4-.65,3.63-2.38,5.93-2.55Z"/></g></svg>