<svg xmlns="http://www.w3.org/2000/svg" viewBox="0 0 199.86 229.78"><path d="M145.78,23.62c50.29,37.34,77.37,126.48,12.16,163.77-32.5,18.59-66.98,6.97-95.62-12.49-3.65-2.48-24.89-18.67-24.25-21.98l10.5-11.4c6.99,5.25,13.37,12.68,22.59,13.48l.08,3.76,10.04-.07,1.05,3.01,10-.03,1.6,4.64,9.96.12v3.86s9.2-2.93,9.2-2.93l2.71,2,12.55-4.86.97,4.81,12.49-8.63,3.34,5.75c.74-4.41,3.11-8.39,6.26-11.53l3.35,2.87c-.52-4.76,1.11-9.03,4.34-12.48l2.38,1.91,1.94-12.49,3.83.96-.96-15.38,3.86-.48-2.9-9.12h3.85s-4.78-10.11-4.78-10.11l2.86-.46c1.58-4.69-4.03-7.85-4.65-11.28-.42-2.28,1.22-4.22.69-6.28-.38-1.47-3.54-3.27-3.37-5,.09-.89,1.88-1.71,1.46-3.62-.39-1.75-4.02-4.86-4.62-7.06l1.85-2.78c-.95-1.49-3.71-2.99-4.35-4.39-1.42-3.16-2.71-8.24-5.21-11.99-.95-1.42-3.91-3.1-4.39-4.31-.63-1.59,1.04-3.25.11-4.79-.85-1.41-4.92-2.01-6.28-3.39-1.04-1.05-1.09-2.86-1.95-3.81-6.49-7.17-30.2-20.75-39.67-25.63-3.84-1.98-7.74-4.31-12.16-4.65-.17-1.71,3.24-1.02,4.29-.93,16.05,1.26,41.86,13.76,54.86,23.41Z"/><path d="M133.38,63.9c.65.52,1.28,2.31,1.98,3.09-25.4,21.98-53.51,41.06-79.94,61.96l-25.02-33.62c-.32-.67-.2-1.27-.02-1.96.82-3.05,25.3-20.49,29.83-24.02,4.84-3.77,14.77-14.05,19.69-15.84s11.34,2.54,16.97,3.01c5.89.5,5.28.46,10.85,1.82,4.95,1.21,23.22,3.6,25.67,5.55Z"/><path d="M141.31,156.83c-.52-.37-5.84,4.28-7.65,2.41l-43.14-54.22c3.7-.77,9.27-7.81,12.96-4.97l42.54,50.7c2.21,3.01-1.03,6.73-3.24,8.94l-1.46-2.86Z"/><path d="M41.01,162.88c5.04,2.66,9.59,3.72,6.27,9.84-4.45,8.22-17.88,25.15-24.49,32.18-2.18,2.33-8.03,9.55-11.03,8.18-4.78-2.18-3.96-6.07-2.3-10.01,2.62-6.21,10.97-17.47,15.32-23.09,4.75-6.13,9.86-12.68,16.22-17.1Z"/><path d="M198.67,223.84c-1.32,1.64-7.91,3.29-9.87,1.27-8.05-9.42-17.18-18.23-24.92-27.9-.85-1.07-4.92-5.85-4.3-6.72l9.25-6.67,1.29.34,27.68,30.01c2.45,2,2.68,7.41.87,9.67Z"/><path d="M51.12,169.32c6.87,3.65-2.61,17.63-5.74,22.61-6.82,10.84-15.4,18.66-25.46,26.38l-1.96-3.8c11.87-14.4,26.29-27.4,33.17-45.19Z"/><path d="M105.46,129.31c7.25,8.4,16.09,18.27,22.82,26.65,1.07,1.34,1.7,4.19,3.45,5.66l-6.45-1.24c-11.03-15.45-25.58-29.23-36.72-44.42-1.37-1.86-3.2-3.66-2.9-6.21l3.42.89c4.73,6.85,10.99,12.43,16.37,18.67Z"/><path d="M186.15,226.29c.41.46.57,1.06.82,1.61l-1.09,1.88-4.76-.83c-7.75-10.31-17.59-19.12-25.36-29.38-2.3-3.04-4.42-6.85,1.44-5.32,8.72,9.88,17.24,19.94,25.85,29.91.91,1.05,2.41,1.37,3.1,2.13Z"/><path d="M17.21,219.58c3.2,3.79-1.58,8.77-6.7,7.21-.62-.19-9.46-7.91-9.8-8.46-2.35-3.83,1.5-7.56,5.51-6.56.99.25,10.18,6.84,10.99,7.8Z"/><path d="M60.45,57.01c2.22-.35,4.56,1.94,4.99,4.07l-13.85,12.13c-7.45-4.85,4.34-15.5,8.86-16.2Z"/><path d="M56.4,140.49l12.92,9.13c-3.11,5.93-19.42-7.84-12.92-9.13Z"/></svg>