<?xml version="1.0" encoding="UTF-8"?><svg id="Layer_2" xmlns="http://www.w3.org/2000/svg" viewBox="0 0 232.81 125.9"><g id="Layer_1-2"><path d="M30.6,86.26c2.2-3,2.53-10.57,3.89-12.47,4.19-5.86,24.21-17.16,30.85-23.7,4.58-4.52,4.31-7.07,10.99-10.83,9.99-5.61,14.83-10.59,23.42-16.51,1.66-1.14,8.41-1.6,5.31-5.44-2.1-2.6-10.06-6.13-11.47-9.38l.99-1.95c5.55,3.89,5.57-4.75,10.43-4.98.47,3.41-4.12,7.9-2.53,10.89,1.18,2.23,7.81,5.94,10.48,3.99l-1.01,1.97c7.18,1.12,13.15-2.49,18.42-6.95l-2.03-10.9c3.03.03,4.29,5.29,6.11,5.89,1.01.33,5.47-1.56,5.27.57-.14,1.49-13.15,11.41-15.85,11.89,1.69,1.24,3.31,2.73,5.06,3.88,9.64,6.33,16.94,12.06,27.58,18.04,6.68,3.75,6.41,6.31,10.99,10.83,6.63,6.54,26.65,17.84,30.85,23.7,1.36,1.9,1.69,9.47,3.89,12.47-1.7-1.88-3.66-2.69-4.46-5.94-3.8,1.58,2.71,10.07,4.47,11.38,2.49,1.85,5.94,2.19,8.95,4.94,1.44,1.32,7.84,8.43,8.89,9.95,2.92,4.22,2.21,6.73,1,11.4l8.9-7.43c-5.87-4.71-11.48-13.09-17.35-17.35-4.81-3.49-5.9-1.96-10.41-6.94,1.57,2.14,10.11,4.54,13.39,6.94,1.76,1.29,16.75,15.61,16.99,16.78.3,1.48.44,1.34-.61,2.51-3.44,3.84-10.09,7.83-13.4,12.41l-25.8-34.68c-2.25-.57-7.46,11.42-7.44,13.88l-8.82-2.08c-1.35-8.04,7.12-13.35-1.09-19.73l5.94,1.97,1-3.95-3.95.98,1.08-4.3-3.77-2.48-4.76,3.79-3.25-3.44,1.75-4.46c-.52-.55-10.26,6.57-11.88,7.45-8.29,4.5-18.36,7.76-27.68,5.33v-9.71c10.21-2.18,21.85-2.49,28.63-11.5-1.7-3.62-5.75-3.67-7.81-5.06-2.73-1.85-23.71-19.92-24.96-21.65-1.14-1.58-.83-3.64-2.34-5.59-1.61-2.08-6.02-3.62-8.03-5.68-1.57,1.95-5.28,3.35-6.49,5.21-5.21,8-18.48,21.06-26.83,26.72-2.06,1.39-6.11,1.44-7.81,5.06,6.78,9.02,18.42,9.32,28.64,11.5v9.71c-9.33,2.43-19.4-.83-27.69-5.33-1.62-.88-11.37-7.99-11.88-7.45l1.75,4.46-3.25,3.44-4.76-3.79-3.77,2.48,1.08,4.3-3.95-.98,1,3.95,5.94-1.97c-8.21,6.38.26,11.69-1.09,19.73l-8.82,2.08c.02-2.46-5.18-14.45-7.44-13.88l-25.8,34.68c-3.3-4.58-9.96-8.57-13.4-12.41-1.05-1.17-.91-1.03-.61-2.51.24-1.17,15.23-15.5,16.99-16.78,3.28-2.4,11.82-4.8,13.39-6.94-4.51,4.98-5.6,3.46-10.41,6.94-5.87,4.25-11.48,12.63-17.35,17.35l8.9,7.43c-1.21-4.67-1.93-7.18,1-11.4,1.05-1.51,7.46-8.63,8.89-9.95,3.01-2.75,6.46-3.08,8.95-4.94,1.76-1.31,8.28-9.81,4.47-11.38-.8,3.25-2.76,4.06-4.46,5.94ZM108.44,19.53c.65,1.5-7.75,8.4-3.5,8.99,1.52.21,8.45-4.36,8.45-5.5l-4.95-3.49ZM119.4,21.54c-.92,1.14,8.24,11,10.96,6.48-2.42-4.09-5.78-8.36-10.96-6.48ZM103.42,28.53c-5.14.89-11,5.84-15.3,9.16s-8.63,6.33-11.67,10.79c1.89.32,2.92-.13,4.52-.96,2.59-1.34,14.56-10.31,17.36-12.6,2.2-1.8,4.07-3.67,5.09-6.39ZM157.37,49.48c-3.04-4.46-7.47-7.56-11.67-10.79s-10.16-8.26-15.3-9.16c1.01,2.72,2.89,4.59,5.09,6.39,2.8,2.29,14.77,11.26,17.36,12.6,1.6.83,2.63,1.28,4.52.96ZM53.47,68.45c1.73.45,2-.71,3-1.49,2.01-1.55,11.9-10.25,11.74-12-1.42-2.04-1.96-3.12-4.28-1.54-1.22.83-9.63,7.5-9.96,8.04-1.13,1.85-.31,4.86-.5,6.98ZM180.34,69.45c-.19-2.12.63-5.13-.5-6.98-.33-.55-8.75-7.21-9.96-8.04-3.06-2.09-5.47.77-2.51,4.54,1.44,1.84,7.86,7.37,9.98,9,1,.77,1.27,1.93,3,1.49Z"/></g></svg>